<mxfile host="65bd71144e">
    <diagram id="aX3GKfdL50LBItLEG8CT" name="Page-1">
        <mxGraphModel dx="1211" dy="983" grid="0" gridSize="10" guides="1" tooltips="1" connect="1" arrows="1" fold="1" page="1" pageScale="1" pageWidth="827" pageHeight="1169" math="0" shadow="0">
            <root>
                <mxCell id="0"/>
                <mxCell id="1" parent="0"/>
                <mxCell id="14" style="edgeStyle=none;html=1;" edge="1" parent="1" source="2" target="6">
                    <mxGeometry relative="1" as="geometry"/>
                </mxCell>
                <mxCell id="2" value="Categories" style="swimlane;fontStyle=0;childLayout=stackLayout;horizontal=1;startSize=30;horizontalStack=0;resizeParent=1;resizeParentMax=0;resizeLast=0;collapsible=1;marginBottom=0;" vertex="1" parent="1">
                    <mxGeometry x="265" y="30" width="180" height="225" as="geometry"/>
                </mxCell>
                <mxCell id="19" value="&lt;div&gt;&lt;ul&gt;&lt;li&gt;id&lt;/li&gt;&lt;li&gt;name&lt;/li&gt;&lt;li&gt;description&lt;/li&gt;&lt;li&gt;expected&lt;/li&gt;&lt;li&gt;liquid&lt;/li&gt;&lt;li&gt;created_at&lt;/li&gt;&lt;li&gt;upated_at&lt;/li&gt;&lt;li&gt;&amp;nbsp;is_visible&lt;/li&gt;&lt;/ul&gt;&lt;/div&gt;" style="rounded=0;whiteSpace=wrap;html=1;align=left;" vertex="1" parent="2">
                    <mxGeometry y="30" width="180" height="195" as="geometry"/>
                </mxCell>
                <mxCell id="15" style="edgeStyle=none;html=1;" edge="1" parent="1" source="6" target="10">
                    <mxGeometry relative="1" as="geometry"/>
                </mxCell>
                <mxCell id="6" value="Statments" style="swimlane;fontStyle=0;childLayout=stackLayout;horizontal=1;startSize=30;horizontalStack=0;resizeParent=1;resizeParentMax=0;resizeLast=0;collapsible=1;marginBottom=0;" vertex="1" parent="1">
                    <mxGeometry x="263.5" y="298" width="183" height="275" as="geometry"/>
                </mxCell>
                <mxCell id="20" value="&lt;div&gt;&lt;div&gt;&lt;ul&gt;&lt;li&gt;&lt;font color=&quot;#ffffff&quot;&gt;Id&lt;/font&gt;&lt;/li&gt;&lt;li&gt;&lt;font color=&quot;#ffffff&quot;&gt;checknum&lt;/font&gt;&lt;/li&gt;&lt;li&gt;&lt;font color=&quot;#ffffff&quot;&gt;title&lt;/font&gt;&lt;/li&gt;&lt;li&gt;&lt;font color=&quot;#ffffff&quot;&gt;detail&lt;/font&gt;&lt;/li&gt;&lt;li&gt;&lt;font color=&quot;#ffffff&quot;&gt;date&lt;/font&gt;&lt;/li&gt;&lt;li&gt;&lt;font color=&quot;#ffffff&quot;&gt;typename&lt;/font&gt;&lt;/li&gt;&lt;li&gt;&lt;font color=&quot;#ffffff&quot;&gt;amount&lt;/font&gt;&lt;/li&gt;&lt;li&gt;&lt;font color=&quot;#ffffff&quot;&gt;is_negative&lt;/font&gt;&lt;/li&gt;&lt;li&gt;&lt;font color=&quot;#ffffff&quot;&gt;categories_id&lt;/font&gt;&lt;/li&gt;&lt;li&gt;&lt;font color=&quot;#ffffff&quot;&gt;establishment_id&lt;/font&gt;&lt;/li&gt;&lt;/ul&gt;&lt;/div&gt;&lt;/div&gt;" style="rounded=0;whiteSpace=wrap;html=1;align=left;" vertex="1" parent="6">
                    <mxGeometry y="30" width="183" height="245" as="geometry"/>
                </mxCell>
                <mxCell id="10" value="Establishments" style="swimlane;fontStyle=0;childLayout=stackLayout;horizontal=1;startSize=30;horizontalStack=0;resizeParent=1;resizeParentMax=0;resizeLast=0;collapsible=1;marginBottom=0;" vertex="1" parent="1">
                    <mxGeometry x="267.5" y="628" width="178.5" height="207" as="geometry"/>
                </mxCell>
                <mxCell id="22" value="&lt;div&gt;&lt;ul&gt;&lt;li&gt;id&lt;/li&gt;&lt;li&gt;name&lt;/li&gt;&lt;li&gt;created_at&lt;/li&gt;&lt;li&gt;upated_at&lt;/li&gt;&lt;li&gt;detail&lt;/li&gt;&lt;li&gt;address&lt;/li&gt;&lt;li&gt;statment&lt;/li&gt;&lt;/ul&gt;&lt;/div&gt;" style="rounded=0;whiteSpace=wrap;html=1;fontFamily=Helvetica;fontSize=12;fontColor=#FFFFFF;align=left;" vertex="1" parent="10">
                    <mxGeometry y="30" width="178.5" height="177" as="geometry"/>
                </mxCell>
            </root>
        </mxGraphModel>
    </diagram>
</mxfile>